<svg xmlns="http://www.w3.org/2000/svg">
  <symbol id="arrowBig" viewBox="0 0 37 31"><path fill="#1A1A1A" d="M21.4 0l-2.1 2.2L31.1 14H0v3h31.1L19.2 28.8l2.2 2.2 15.5-15.5"/></symbol>

  <symbol id="collapse" viewBox="0 0 20 20"><path d="M0 9.2h20v1.6H0z"/></symbol>

  <symbol id="expand" viewBox="0 0 20 20"><g><path d="M0 9.2h20v1.6H0z"/><path d="M9.2 0h1.6v20H9.2z"/></g></symbol>

  <symbol id="media" viewBox="0 0 105 30"><path fill="#1A1A1A" d="M41.6 7.4c-5.9 0-10.5 4.9-10.5 11s4.7 10.9 10.5 10.9c5.2 0 8.7-2.9 9.9-7.1h-5.7c-.9 1.7-2.5 2.4-4.3 2.4-2.5 0-4.4-1.6-5.1-4.1h15.5c.8-8.3-4.2-13.1-10.3-13.1zm-5.1 8.7c.8-2.4 2.6-4 5-4 2.6 0 4.4 1.5 5.1 4H36.5zM77 .7h5.3v5H77v-5zM77 8h5.3v20.8H77V8zm-7.6 1.5c-1.7-1.3-3.7-2-5.9-2-6 0-10.3 4.9-10.3 10.9s4.1 10.9 10.3 10.9c2.4 0 4.5-.9 6.2-2.4v1.9h5.1V.7h-5.3l-.1 8.8zM64 24.3c-3.1 0-5.7-2.7-5.7-5.9s2.5-5.9 5.7-5.9c3.1 0 5.7 2.7 5.7 5.9s-2.5 5.9-5.7 5.9zm39.4-8.8c0-2.5-1-8.1-9.1-8.1-5.5 0-9 3-9.5 6.9h5.3c.5-1.8 2.4-2.6 4.3-2.6 2.7 0 4.1 1.6 4.1 3.6-1 0-3.7.2-6 .4-4.6.4-8.5 2-8.5 6.7 0 4.5 4 6.8 8.5 6.8 2.9 0 4.7-.9 6.1-2.3.1.8.3 1.4.5 1.9h4.9c-.3-.8-.6-2.4-.6-3.4v-9.9zm-5 5.2c0 2.7-2.4 3.8-5.6 3.8-2.1 0-3.3-.8-3.4-2-.2-1.7 1.6-2.5 4.3-2.8 1.7-.2 3.9-.3 4.8-.4v1.4h-.1zm-82-5.4c-.4 1.6-1 4-1.2 5h-.1c-.2-1-.7-3.4-1.2-5C13 12.2 9.9.7 9.9.7H1.2v28.1h5.4V7.4h.1l5.8 21.4h5.4l5.9-21.4h.1v21.4h5.5V.7h-8.9s-3.2 11.5-4.1 14.6z"/></symbol>

  <symbol id="plus" viewBox="0 0 33 33"><ellipse transform="rotate(-45 16.5 16.5)" class="st0" fill="#E9E9E9" cx="16.5" cy="16.5" rx="16" ry="16"/><path class="st1" fill="#949494" d="M15.7 7h1.5v19.1h-1.5z"/><path class="st1" d="M7 15.7h19.1v1.5H7z"/></symbol>

  <symbol id="plusBig" viewBox="0 0 35 35"><path fill="#1A1A1A" d="M19 16V0h-3v16H0v3h16v16h3V19h16v-3"/></symbol>
</svg>