<svg class="post__placeholder" xmlns="http://www.w3.org/2000/svg" width="600" height="357" viewBox="0 0 600 357"><path fill="#1A1A1A" d="M0 0h600v357H0z"/><g fill="#FFFFFF"><path d="M176.1 258.2c-23 0-41.3 19.4-41.3 43s18.3 42.7 41.3 42.7c20.3 0 34.2-11.3 39-27.9h-22.4c-3.5 6.5-9.8 9.5-16.7 9.5-9.8 0-17.2-6.2-19.9-16.2h60.6c2.9-32.4-16.5-51.1-40.6-51.1zm-19.8 34c3-9.5 10.1-15.6 19.6-15.6 10 0 17.4 6 19.9 15.6h-39.5zM315 231.9h20.9v19.5H315zM315 260.3h20.9V342H315zM285.2 266.2c-6.5-5-14.5-8-23.3-8-23.6 0-40.4 19.2-40.4 42.8 0 23.7 16.2 42.8 40.4 42.8 9.5 0 17.8-3.5 24.2-9.3v7.4h20v-110h-20.9v34.3zm-21.1 58.2c-12.3 0-22.2-10.4-22.2-23.3s10-23.3 22.2-23.3c12.3 0 22.2 10.4 22.2 23.3s-9.9 23.3-22.2 23.3zM418.4 289.8c0-9.7-4.1-31.6-35.6-31.6-21.4 0-35.3 11.6-37.4 27.1h20.9c1.9-7 9.4-10.3 16.9-10.3 10.6 0 16 6.1 16 14.3-4.1.2-14.5.6-23.4 1.4-18.1 1.6-33.5 8-33.5 26.4 0 17.8 15.9 26.5 33.2 26.5 11.4 0 18.6-3.5 23.9-9.2.5 3 1.1 5.6 2.1 7.6h19.2c-1.1-3.2-2.4-9.4-2.4-13.3v-38.9zm-19.5 20.5c0 10.5-9.6 14.8-22.1 14.8-8.4 0-12.8-3.2-13.2-7.8-.7-6.7 6.4-9.9 16.7-11 6.6-.7 15.2-1.2 18.7-1.4v5.4zM77.5 289.1c-1.7 6.2-3.7 15.6-4.6 19.7h-.3c-.9-4.1-2.9-13.5-4.6-19.7-3.4-12.1-15.9-57.2-15.9-57.2H17.7V342h21.2v-84h.3L62 342h21.1l23-84h.3v84h21.7V231.9H93.3S80.9 277 77.5 289.1zM537.7 282.1h-50.2v-50.2h-9.7v50.2h-50.3v9.7h50.3V342h9.7v-50.2h50.2"/></g></svg>